<?xml version="1.0" encoding="utf-8"?>
<!-- Generator: Adobe Illustrator 16.0.0, SVG Export Plug-In . SVG Version: 6.00 Build 0)  -->
<!DOCTYPE svg PUBLIC "-//W3C//DTD SVG 1.1//EN" "http://www.w3.org/Graphics/SVG/1.1/DTD/svg11.dtd">
<svg version="1.1" id="图层_3" xmlns="http://www.w3.org/2000/svg" xmlns:xlink="http://www.w3.org/1999/xlink" x="0px" y="0px"
	 width="192px" height="192px" viewBox="0 0 192 192" enable-background="new 0 0 192 192" xml:space="preserve">
<line fill="none" x1="17.705" y1="74.155" x2="177.174" y2="74.155"/>
<path fill="#3385FF" d="M161.189,20h-129.5c-6.216,0-11.25,5.035-11.25,11.25v129.5c0,6.215,5.034,11.25,11.25,11.25h129.5
	c6.215,0,11.25-5.035,11.25-11.25V31.25C172.439,25.035,167.404,20,161.189,20z"/>
<g>
	<path fill="#FFFFFF" d="M74.376,109.079h-5.179v-10.73H58.679v10.73H53.5V83.254h5.179v11.104h10.518V83.254h5.179V109.079z"/>
	<path fill="#FFFFFF" d="M96.618,87.245H89.24v21.834h-5.179V87.245h-7.272v-3.991h19.83V87.245z"/>
	<path fill="#FFFFFF" d="M117.742,87.245h-7.378v21.834h-5.179V87.245h-7.272v-3.991h19.829V87.245z"/>
	<path fill="#FFFFFF" d="M125.759,99.714v9.365h-5.179V83.254h9.879c2.968,0,5.304,0.757,7.006,2.271
		c1.703,1.514,2.555,3.506,2.555,5.977c0,2.472-0.852,4.458-2.555,5.96c-1.702,1.502-4.038,2.252-7.006,2.252H125.759z
		 M125.759,95.724h4.7c1.442,0,2.536-0.394,3.281-1.18s1.117-1.789,1.117-3.006c0-1.242-0.369-2.267-1.108-3.077
		s-1.836-1.215-3.29-1.215h-4.7V95.724z"/>
</g>
</svg>
